C:\Users\r0593348\3dpredictsim\Results\batch_windlass\Pog_s1_tmt_bCst_d00_k1500_WL40_ig24_pas_GRF.mot
nRows=27
nColumns=19

name C:\Users\r0593348\3dpredictsim\Results\batch_windlass\Pog_s1_tmt_bCst_d00_k1500_WL40_ig24_pas_GRF.mot
datacolumns 19
datarows 27
range 0.5582645908 0.8485621780
endheader
time 	ground_force_vx	ground_force_vy	ground_force_vz	ground_force_px	ground_force_py	ground_force_pz	1_ground_force_vx	1_ground_force_vy	1_ground_force_vz	1_ground_force_px	1_ground_force_py	1_ground_force_pz	ground_torque_x	ground_torque_y	ground_torque_z	1_ground_torque_x	1_ground_torque_y	1_ground_torque_z
        0.5582645908	       72.5420795394	      421.9640792038	       -0.1721036822	        0.3808742462	        0.0000000000	        0.0299845430	      -64.1911331528	       45.5950830742	      -16.0165597601	        0.8601294574	        0.0000000000	       -0.0437115577	        0.0000000000	        0.0000000000	        0.0000000000	        0.0000000000	        0.0000000000	        0.0000000000	
        0.5694298826	       45.4406987611	      322.9690275988	        7.2580552539	        0.3872296358	        0.0000000000	        0.0271273268	     -120.0712095402	      106.0312587136	      -38.7856975623	        0.8706673789	        0.0000000000	       -0.0410858985	        0.0000000000	        0.0000000000	        0.0000000000	        0.0000000000	        0.0000000000	        0.0000000000	
        0.5805951744	       17.2237213624	      223.0280350794	       13.3379653930	        0.3973896108	        0.0000000000	        0.0218241195	      -92.4124618005	      230.7952582799	      -53.9825252606	        0.8778985028	        0.0000000000	       -0.0394232029	        0.0000000000	        0.0000000000	        0.0000000000	        0.0000000000	        0.0000000000	        0.0000000000	
        0.5917604662	        1.9440569318	      155.2347500143	       14.7251645738	        0.4085972834	        0.0000000000	        0.0150113744	      -53.2603833437	      430.2427445325	      -11.0682210674	        0.8820022015	        0.0000000000	       -0.0385070352	        0.0000000000	        0.0000000000	        0.0000000000	        0.0000000000	        0.0000000000	        0.0000000000	
        0.6029257580	       -6.5943949351	      123.9772626802	       10.8690735843	        0.4082538902	        0.0000000000	        0.0149460878	      -65.5335788125	      657.6565316302	        8.0505327520	        0.8895091265	        0.0000000000	       -0.0402143537	        0.0000000000	        0.0000000000	        0.0000000000	        0.0000000000	        0.0000000000	        0.0000000000	
        0.6140910498	      -10.8945491300	       83.5102651617	        7.5457522718	        0.4084588091	        0.0000000000	        0.0147461535	      -95.1360886612	      830.8438134974	       17.5322676125	        0.8968707942	        0.0000000000	       -0.0422313079	        0.0000000000	        0.0000000000	        0.0000000000	        0.0000000000	        0.0000000000	        0.0000000000	
        0.6252563417	      -15.7082354107	       40.3301946840	        3.6605963768	        0.4078983397	        0.0000000000	        0.0144740625	     -111.9405625657	      896.6978020532	       20.6825281302	        0.9023163307	        0.0000000000	       -0.0436128482	        0.0000000000	        0.0000000000	        0.0000000000	        0.0000000000	        0.0000000000	        0.0000000000	
        0.6364216335	        0.2338889715	       -0.2280543281	        0.0188434769	        0.0000000000	        0.0000000000	        0.0000000000	     -115.8364521486	      907.0051961873	       21.7117760930	        0.9066790252	        0.0000000000	       -0.0445748322	        0.0000000000	        0.0000000000	        0.0000000000	        0.0000000000	        0.0000000000	        0.0000000000	
        0.6475869253	        0.0000295568	       -0.0000227483	        0.0000036709	        0.0000000000	        0.0000000000	        0.0000000000	     -110.2004962998	      891.0063653249	       19.6760048076	        0.9103837355	        0.0000000000	       -0.0450928695	        0.0000000000	        0.0000000000	        0.0000000000	        0.0000000000	        0.0000000000	        0.0000000000	
        0.6587522171	        0.0011615609	       -0.0008106601	        0.0001338953	        0.0000000000	        0.0000000000	        0.0000000000	      -95.6895971279	      847.3304812383	       18.1740919709	        0.9137733994	        0.0000000000	       -0.0451948094	        0.0000000000	        0.0000000000	        0.0000000000	        0.0000000000	        0.0000000000	        0.0000000000	
        0.6699175089	        0.0063647372	       -0.0040450996	        0.0006955762	        0.0000000000	        0.0000000000	        0.0000000000	      -83.0816787111	      799.1900418872	       17.6311522789	        0.9175648705	        0.0000000000	       -0.0452000303	        0.0000000000	        0.0000000000	        0.0000000000	        0.0000000000	        0.0000000000	        0.0000000000	
        0.6810828007	       -0.0563384059	        0.0335956411	       -0.0058393005	        0.0000000000	        0.0000000000	        0.0000000000	      -71.5083743766	      754.7797113261	       17.7089165833	        0.9215313138	        0.0000000000	       -0.0450971389	        0.0000000000	        0.0000000000	        0.0000000000	        0.0000000000	        0.0000000000	        0.0000000000	
        0.6922480925	       -0.1224928415	        0.0696612978	       -0.0121040048	        0.0000000000	        0.0000000000	        0.0000000000	      -61.1037741146	      712.9138739241	       18.3012344395	        0.9254048949	        0.0000000000	       -0.0449930660	        0.0000000000	        0.0000000000	        0.0000000000	        0.0000000000	        0.0000000000	        0.0000000000	
        0.7034133844	       -0.0753141703	        0.0408980757	       -0.0072560705	        0.0000000000	        0.0000000000	        0.0000000000	      -51.3602736319	      677.0099913109	       19.0114643217	        0.9289867440	        0.0000000000	       -0.0449478852	        0.0000000000	        0.0000000000	        0.0000000000	        0.0000000000	        0.0000000000	        0.0000000000	
        0.7145786762	       -0.0478288769	        0.0247517940	       -0.0046056391	        0.0000000000	        0.0000000000	        0.0000000000	      -42.3961944829	      648.0591689639	       19.6880788953	        0.9324605728	        0.0000000000	       -0.0449646760	        0.0000000000	        0.0000000000	        0.0000000000	        0.0000000000	        0.0000000000	        0.0000000000	
        0.7257439680	       -0.0363919675	        0.0179566298	       -0.0035438581	        0.0000000000	        0.0000000000	        0.0000000000	      -34.3579516947	      625.2653345690	       20.3166942352	        0.9359867799	        0.0000000000	       -0.0450208436	        0.0000000000	        0.0000000000	        0.0000000000	        0.0000000000	        0.0000000000	        0.0000000000	
        0.7369092598	       -0.0343183544	        0.0162056251	       -0.0033945984	        0.0000000000	        0.0000000000	        0.0000000000	      -27.5856739122	      607.3512153992	       20.9195539994	        0.9396065200	        0.0000000000	       -0.0450946080	        0.0000000000	        0.0000000000	        0.0000000000	        0.0000000000	        0.0000000000	        0.0000000000	
        0.7480745516	       -0.0400382290	        0.0181950448	       -0.0040177850	        0.0000000000	        0.0000000000	        0.0000000000	      -22.5648414054	      593.7617249761	       21.3603625965	        0.9432585349	        0.0000000000	       -0.0451744202	        0.0000000000	        0.0000000000	        0.0000000000	        0.0000000000	        0.0000000000	        0.0000000000	
        0.7592398434	       -0.0561963048	        0.0247193432	       -0.0056999601	        0.0000000000	        0.0000000000	        0.0000000000	      -19.0370044365	      584.3205594333	       21.5603518800	        0.9468972517	        0.0000000000	       -0.0452526974	        0.0000000000	        0.0000000000	        0.0000000000	        0.0000000000	        0.0000000000	        0.0000000000	
        0.7704051353	       -0.0905273370	        0.0387361711	       -0.0092337632	        0.0000000000	        0.0000000000	        0.0000000000	      -16.0569596350	      578.3788914156	       21.5349462710	        0.9506343244	        0.0000000000	       -0.0453139011	        0.0000000000	        0.0000000000	        0.0000000000	        0.0000000000	        0.0000000000	        0.0000000000	
        0.7815704271	       -0.1574391780	        0.0657878869	       -0.0160223615	        0.0000000000	        0.0000000000	        0.0000000000	      -13.4152725753	      574.9266467397	       21.1282553121	        0.9545028066	        0.0000000000	       -0.0453437677	        0.0000000000	        0.0000000000	        0.0000000000	        0.0000000000	        0.0000000000	        0.0000000000	
        0.7927357189	       -0.2767427164	        0.1132801428	       -0.0278288208	        0.0000000000	        0.0000000000	        0.0000000000	      -10.3866331301	      573.3261543222	       20.6323832746	        0.9586576033	        0.0000000000	       -0.0453197203	        0.0000000000	        0.0000000000	        0.0000000000	        0.0000000000	        0.0000000000	        0.0000000000	
        0.8039010107	       -0.4631402028	        0.1862593473	       -0.0456080081	        0.0000000000	        0.0000000000	        0.0000000000	       -7.5259713083	      572.4772805229	       20.2184747992	        0.9630823027	        0.0000000000	       -0.0452296870	        0.0000000000	        0.0000000000	        0.0000000000	        0.0000000000	        0.0000000000	        0.0000000000	
        0.8150663025	       -0.7037933012	        0.2789822817	       -0.0674278161	        0.0000000000	        0.0000000000	        0.0000000000	       -4.7294943785	      571.8423926081	       20.0366687412	        0.9676868287	        0.0000000000	       -0.0450818770	        0.0000000000	        0.0000000000	        0.0000000000	        0.0000000000	        0.0000000000	        0.0000000000	
        0.8262315943	       -0.9504119344	        0.3725931579	       -0.0880224244	        0.0000000000	        0.0000000000	        0.0000000000	       -1.7253832280	      570.9649895667	       19.9033632346	        0.9724690897	        0.0000000000	       -0.0448856617	        0.0000000000	        0.0000000000	        0.0000000000	        0.0000000000	        0.0000000000	        0.0000000000	
        0.8373968861	       -1.1412450019	        0.4438481583	       -0.1015100376	        0.0000000000	        0.0000000000	        0.0000000000	        1.2137491500	      569.2535841669	       19.6232659719	        0.9773899298	        0.0000000000	       -0.0446491662	        0.0000000000	        0.0000000000	        0.0000000000	        0.0000000000	        0.0000000000	        0.0000000000	
        0.8485621780	       -1.2354300011	        0.4778103111	       -0.1045925805	        0.0000000000	        0.0000000000	        0.0000000000	        4.3049674751	      566.4461706511	       18.8992713866	        0.9824384281	        0.0000000000	       -0.0443813611	        0.0000000000	        0.0000000000	        0.0000000000	        0.0000000000	        0.0000000000	        0.0000000000	
